<svg xmlns="http://www.w3.org/2000/svg" viewBox="0 0 128 128" role="img" aria-label="Chatterwilly user avatar">
  <defs>
    <linearGradient id="bg" x1="0" y1="0" x2="1" y2="1">
      <stop offset="0%" stop-color="#fef3c7"/>
      <stop offset="100%" stop-color="#fde68a"/>
    </linearGradient>
    <linearGradient id="hair" x1="0" y1="0" x2="1" y2="1">
      <stop offset="0%" stop-color="#7c3aed"/>
      <stop offset="100%" stop-color="#4c1d95"/>
    </linearGradient>
  </defs>
  <rect width="128" height="128" rx="64" fill="url(#bg)"/>
  <circle cx="64" cy="54" r="26" fill="#f6c7a4"/>
  <path d="M36 60c2-20 16-34 28-34s26 14 28 34c-6-6-15-10-28-10s-22 4-28 10z" fill="url(#hair)"/>
  <path d="M48 46c6-8 26-8 32 0-2 8-7 13-16 13S50 54 48 46z" fill="#1f2937" opacity="0.15"/>
  <circle cx="54" cy="56" r="2.5" fill="#1f2937"/>
  <circle cx="74" cy="56" r="2.5" fill="#1f2937"/>
  <path d="M56 66c4 4 12 4 16 0" fill="none" stroke="#b45309" stroke-width="3" stroke-linecap="round"/>
  <path d="M42 88c4-12 15-18 22-18s18 6 22 18" fill="#2563eb"/>
  <path d="M47 88c3-7 10-11 17-11s14 4 17 11" fill="#dbeafe"/>
</svg>
